<svg width="35" height="24" viewBox="0 0 35 24" fill="none" xmlns="http://www.w3.org/2000/svg">
<rect x="0.5" y="0.5" width="34" height="23" rx="3.5" fill="white" stroke="#D9D9D9"/>
<path d="M26.3094 7.37012H19.5332L18.8441 8.14697L16.6077 10.6677V10.6678L15.9186 11.4445H9.232L9.91049 10.6579L10.2316 10.2855L10.9101 9.49888H7.82912C7.26625 9.49888 6.80566 9.97172 6.80566 10.5496V12.7665C6.80566 13.3445 7.26625 13.8173 7.82912 13.8173H19.6246C20.1874 13.8173 20.9564 13.4661 21.3333 13.0369L23.1175 11.0051L26.3094 7.37012Z" fill="#005697"/>
<path d="M27.6709 5C28.2338 5 28.6944 5.47284 28.6944 6.05077V8.26764C28.6944 8.84548 28.2338 9.31841 27.6709 9.31841H24.6L25.2849 8.53766H25.2849L25.6245 8.15058L26.3094 7.36991H19.5334L15.9188 11.4473H9.19067L14.0157 5.98504L14.1983 5.77832C14.5765 5.35023 15.3465 5 15.9093 5H27.6709V5Z" fill="#FBD500"/>
<path fill-rule="evenodd" clip-rule="evenodd" d="M9.11213 17.586C9.11213 17.4413 9.07801 17.316 9.00994 17.2102C8.94178 17.1044 8.85214 17.0237 8.74093 16.968C8.85214 16.9123 8.93831 16.8301 8.99954 16.7216C9.06069 16.613 9.09126 16.4906 9.09126 16.3542V16.279C9.09126 16.1119 9.0593 15.9728 8.99539 15.8614C8.93138 15.7501 8.84166 15.6609 8.72629 15.5942C8.61093 15.5273 8.47253 15.4793 8.31135 15.45C8.15 15.4208 7.97072 15.4062 7.77325 15.4062C7.70657 15.4062 7.63702 15.4076 7.56479 15.4104C7.49238 15.4132 7.42223 15.4167 7.35416 15.4208C7.28599 15.425 7.22338 15.4299 7.16647 15.4355C7.1094 15.4411 7.0628 15.4467 7.02669 15.4521C6.94606 15.4662 6.88907 15.4911 6.85572 15.5273C6.82238 15.5635 6.80566 15.629 6.80566 15.7236V18.2625C6.80566 18.3572 6.82299 18.4226 6.8578 18.4588C6.89253 18.495 6.9516 18.52 7.03509 18.5339C7.07675 18.5423 7.12681 18.5492 7.18518 18.5548C7.24356 18.5604 7.30678 18.5652 7.37494 18.5694C7.4431 18.5736 7.51326 18.577 7.58557 18.5799C7.65789 18.5826 7.72874 18.5841 7.79828 18.5841C7.97904 18.5841 8.14931 18.5701 8.30927 18.5423C8.46907 18.5145 8.60807 18.465 8.72629 18.394C8.84451 18.3231 8.93831 18.227 9.00786 18.1059C9.07732 17.9848 9.11213 17.8324 9.11213 17.6486V17.586ZM8.40314 16.3874C8.40314 16.432 8.39621 16.4745 8.38226 16.5148C8.36832 16.5551 8.34546 16.5899 8.3135 16.6193C8.28145 16.6484 8.23841 16.6721 8.18419 16.6901C8.12997 16.7083 8.06112 16.7173 7.97772 16.7173H7.51064V15.9949C7.5245 15.9949 7.54606 15.9943 7.57525 15.9928C7.60444 15.9914 7.63501 15.9907 7.66697 15.9907H7.82754C8.04163 15.9907 8.19112 16.0179 8.27591 16.0721C8.3607 16.1264 8.40314 16.2106 8.40314 16.3247V16.3874ZM8.29678 17.9033C8.3788 17.8393 8.41985 17.7488 8.41985 17.6319V17.586C8.41985 17.4857 8.38781 17.3988 8.32389 17.325C8.25989 17.2513 8.14453 17.2143 7.97772 17.2143H7.51064V17.9952H7.58356C7.61552 17.9952 7.64887 17.996 7.68368 17.9973C7.71841 17.9987 7.75176 17.9995 7.7838 17.9995H7.85257C8.06666 17.9995 8.21477 17.9674 8.29678 17.9033ZM11.3978 16.9721C11.3978 16.8191 11.3748 16.6888 11.3289 16.5816C11.2831 16.4746 11.2184 16.3868 11.135 16.3186C11.0516 16.2504 10.9494 16.2004 10.8284 16.1683C10.7075 16.1363 10.5719 16.1203 10.4218 16.1203C10.2827 16.1203 10.1471 16.1301 10.0151 16.1496C9.88298 16.169 9.77801 16.1885 9.70024 16.2079C9.6474 16.222 9.62099 16.2525 9.62099 16.2997V16.638C9.62099 16.6659 9.62792 16.6854 9.64186 16.6965C9.65572 16.7076 9.67373 16.7133 9.69608 16.7133H9.71686L9.84201 16.7028C9.89207 16.6986 9.94837 16.6952 10.011 16.6923C10.0735 16.6896 10.1388 16.6875 10.207 16.686C10.2751 16.6847 10.3425 16.684 10.4093 16.684C10.5066 16.684 10.583 16.7021 10.6386 16.7382C10.6942 16.7745 10.722 16.8524 10.722 16.9721V17.1225H10.4969C10.1381 17.1225 9.87744 17.1788 9.71479 17.2916C9.55214 17.4043 9.47081 17.5832 9.47081 17.8281V17.8658C9.47081 18.0022 9.49099 18.1163 9.53126 18.2081C9.57154 18.3 9.62515 18.3738 9.69183 18.4296C9.75861 18.4851 9.83431 18.5249 9.91918 18.5484C10.004 18.5721 10.0923 18.584 10.184 18.584C10.3092 18.584 10.4169 18.5673 10.5073 18.5339C10.5976 18.5005 10.6831 18.4545 10.7638 18.3961V18.4629C10.7638 18.4851 10.7721 18.5046 10.7888 18.5213C10.8055 18.538 10.8249 18.5464 10.8472 18.5464H11.3144C11.3365 18.5464 11.356 18.538 11.3727 18.5213C11.3894 18.5046 11.3978 18.4851 11.3978 18.4629V16.9721ZM10.574 18.0473C10.6309 18.0293 10.6846 18.0077 10.7346 17.9826V17.5233H10.4969C10.4246 17.5233 10.3648 17.5296 10.3175 17.5421C10.2702 17.5546 10.2326 17.5734 10.2049 17.5985C10.1771 17.6235 10.1576 17.6556 10.1465 17.6945C10.1354 17.7335 10.1298 17.778 10.1298 17.8281V17.8658C10.1298 17.9548 10.1513 18.0119 10.1944 18.0369C10.2376 18.062 10.3036 18.0745 10.3926 18.0745C10.4565 18.0745 10.517 18.0655 10.574 18.0473ZM13.9503 18.4587V17.0681C13.9503 16.9374 13.9399 16.8141 13.9191 16.6986C13.8982 16.5832 13.8607 16.4829 13.8065 16.3979C13.7523 16.313 13.6772 16.2455 13.5812 16.1954C13.4853 16.1453 13.3623 16.1203 13.2121 16.1203C13.0786 16.1203 12.9604 16.1364 12.8576 16.1686C12.7547 16.2009 12.6463 16.2577 12.5323 16.339V16.2378C12.5323 16.2155 12.5239 16.1958 12.5073 16.179C12.4905 16.1621 12.4711 16.1536 12.4488 16.1536H11.9817C11.9594 16.1536 11.94 16.162 11.9233 16.1787C11.9066 16.1954 11.8983 16.2149 11.8983 16.2371V18.4587C11.8983 18.481 11.9072 18.5012 11.9254 18.5192C11.9434 18.5373 11.9636 18.5464 11.9859 18.5464H12.4905C12.5128 18.5464 12.5323 18.5373 12.5489 18.5193C12.5656 18.5013 12.5739 18.4812 12.5739 18.4589V16.8172C12.6463 16.7784 12.7143 16.7465 12.7783 16.7215C12.8423 16.6965 12.9048 16.684 12.966 16.684C13.0299 16.684 13.0821 16.6902 13.1224 16.7028C13.1627 16.7153 13.194 16.7368 13.2162 16.7675C13.2385 16.7979 13.2538 16.8381 13.2621 16.8881C13.2704 16.9381 13.2747 16.9992 13.2747 17.0715V18.4589C13.2747 18.4812 13.283 18.5013 13.2997 18.5193C13.3164 18.5373 13.3358 18.5464 13.3581 18.5464H13.8628C13.8849 18.5464 13.9051 18.5373 13.9232 18.5192C13.9413 18.5012 13.9503 18.481 13.9503 18.4587ZM16.0023 18.0537V18.4253C16.0023 18.4559 15.9953 18.4775 15.9815 18.49C15.9675 18.5026 15.9453 18.513 15.9147 18.5213C15.8563 18.5353 15.7805 18.5491 15.6874 18.5632C15.5942 18.577 15.4851 18.584 15.36 18.584C15.0652 18.584 14.8296 18.4935 14.6531 18.3125C14.4765 18.1316 14.3882 17.8699 14.3882 17.5275V17.1767C14.3882 16.8343 14.4765 16.5726 14.6531 16.3917C14.8296 16.2107 15.0652 16.1203 15.36 16.1203C15.4851 16.1203 15.5942 16.1272 15.6874 16.1411C15.7805 16.1551 15.8563 16.169 15.9147 16.1829C15.9453 16.1912 15.9675 16.2017 15.9815 16.2142C15.9953 16.2267 16.0023 16.2483 16.0023 16.2789V16.6506C16.0023 16.6729 15.9946 16.6902 15.9794 16.7028C15.9641 16.7153 15.9453 16.7215 15.9231 16.7215H15.9147C15.8368 16.7133 15.7625 16.7063 15.6916 16.7007C15.6207 16.6952 15.5254 16.6923 15.4059 16.6923C15.3586 16.6923 15.3141 16.7 15.2724 16.7153C15.2307 16.7306 15.1945 16.7571 15.164 16.7946C15.1333 16.8322 15.1091 16.8823 15.091 16.945C15.0729 17.0076 15.0638 17.0848 15.0638 17.1767V17.5275C15.0638 17.6193 15.0729 17.6966 15.091 17.7593C15.1091 17.8219 15.1333 17.872 15.164 17.9095C15.1945 17.9472 15.2307 17.9736 15.2724 17.9889C15.3141 18.0042 15.3586 18.0119 15.4059 18.0119C15.5254 18.0119 15.6207 18.0091 15.6916 18.0035C15.7625 17.998 15.8368 17.991 15.9147 17.9826H15.9231C15.9453 17.9826 15.9641 17.9889 15.9794 18.0015C15.9946 18.014 16.0023 18.0314 16.0023 18.0537ZM18.3173 17.206C18.3173 17.0389 18.2943 16.8886 18.2483 16.755C18.2023 16.6214 18.1354 16.5079 18.0477 16.4146C17.96 16.3214 17.8513 16.249 17.7218 16.1975C17.5922 16.1461 17.4424 16.1203 17.2725 16.1203C17.1026 16.1203 16.9528 16.1461 16.8232 16.1975C16.6937 16.249 16.5843 16.3214 16.4952 16.4146C16.406 16.5079 16.3384 16.6214 16.2925 16.755C16.2464 16.8886 16.2235 17.0389 16.2235 17.206V17.4983C16.2235 17.6653 16.2464 17.8156 16.2925 17.9493C16.3384 18.0829 16.406 18.1963 16.4952 18.2896C16.5843 18.3829 16.6937 18.4552 16.8232 18.5067C16.9528 18.5582 17.1026 18.584 17.2725 18.584C17.4424 18.584 17.5922 18.5582 17.7218 18.5067C17.8513 18.4552 17.96 18.3829 18.0477 18.2896C18.1354 18.1963 18.2023 18.0829 18.2483 17.9493C18.2943 17.8156 18.3173 17.6653 18.3173 17.4983V17.206ZM17.2725 18.0119C17.5185 18.0119 17.6416 17.8407 17.6416 17.4983V17.206C17.6416 16.8663 17.5185 16.6965 17.2725 16.6965C17.1508 16.6965 17.0582 16.7389 16.9946 16.8238C16.931 16.9088 16.8992 17.0362 16.8992 17.206V17.4983C16.8992 17.6681 16.931 17.7961 16.9946 17.8824C17.0582 17.9688 17.1508 18.0119 17.2725 18.0119ZM20.7988 18.4587V17.0681C20.7988 16.9374 20.7882 16.8141 20.7675 16.6986C20.7466 16.5832 20.7091 16.4829 20.6548 16.3979C20.6005 16.313 20.5255 16.2455 20.4297 16.1954C20.3337 16.1453 20.2106 16.1203 20.0605 16.1203C19.9271 16.1203 19.8089 16.1364 19.706 16.1686C19.6031 16.2009 19.4946 16.2577 19.3807 16.339V16.2378C19.3807 16.2155 19.3723 16.1958 19.3555 16.179C19.339 16.1621 19.3194 16.1536 19.2973 16.1536H18.8301C18.8078 16.1536 18.7884 16.162 18.7717 16.1787C18.7551 16.1954 18.7467 16.2149 18.7467 16.2371V18.4587C18.7467 18.481 18.7557 18.5012 18.7738 18.5192C18.7919 18.5373 18.812 18.5464 18.8343 18.5464H19.339C19.3612 18.5464 19.3807 18.5373 19.3974 18.5193C19.414 18.5013 19.4224 18.4812 19.4224 18.4589V16.8172C19.4946 16.7784 19.5628 16.7465 19.6267 16.7215C19.6907 16.6965 19.7532 16.684 19.8145 16.684C19.8784 16.684 19.9305 16.6902 19.9708 16.7028C20.0111 16.7153 20.0424 16.7368 20.0647 16.7675C20.087 16.7979 20.1022 16.8381 20.1106 16.8881C20.1189 16.9381 20.1231 16.9992 20.1231 17.0715V18.4589C20.1231 18.4812 20.1314 18.5013 20.1481 18.5193C20.1648 18.5373 20.1842 18.5464 20.2065 18.5464H20.7111C20.7334 18.5464 20.7536 18.5373 20.7717 18.5192C20.7897 18.5012 20.7988 18.481 20.7988 18.4587ZM22.6174 18.145V18.4682C22.6174 18.5151 22.591 18.5427 22.5382 18.5509C22.4742 18.562 22.4186 18.5702 22.3714 18.5758C22.3241 18.5813 22.2698 18.5841 22.2087 18.5841C22.0952 18.5841 21.995 18.575 21.908 18.5569C21.821 18.5388 21.7483 18.5034 21.6903 18.4505C21.6323 18.3976 21.5881 18.3245 21.5577 18.2312C21.5274 18.138 21.5121 18.0177 21.5121 17.87V16.6591L21.1785 16.6047C21.1561 16.5992 21.1361 16.5888 21.118 16.5734C21.0999 16.5582 21.0908 16.5393 21.0908 16.5171V16.2414C21.0908 16.2192 21.0999 16.199 21.118 16.1809C21.1361 16.1628 21.1561 16.1537 21.1785 16.1537H21.5121V15.8113C21.5121 15.789 21.5204 15.771 21.537 15.757C21.5534 15.7432 21.5729 15.7334 21.5951 15.7278L22.1008 15.6402H22.1132C22.1353 15.6402 22.1533 15.6464 22.1671 15.6589C22.1809 15.6714 22.1878 15.6889 22.1878 15.7111V16.1537H22.5298C22.552 16.1537 22.5715 16.1621 22.5882 16.179C22.6049 16.1958 22.6132 16.2156 22.6132 16.2379V16.579C22.6132 16.6015 22.6049 16.6211 22.5882 16.6379C22.5715 16.6548 22.552 16.6632 22.5298 16.6632H22.1878V17.8783C22.1878 17.9618 22.1948 18.0155 22.2087 18.0391C22.2226 18.0628 22.2614 18.0746 22.3254 18.0746H22.5298C22.5882 18.0746 22.6174 18.0981 22.6174 18.145ZM24.8445 16.9721C24.8445 16.8191 24.8217 16.6888 24.7757 16.5816C24.7299 16.4746 24.6653 16.3868 24.5819 16.3186C24.4984 16.2504 24.3962 16.2004 24.2753 16.1683C24.1544 16.1363 24.0188 16.1203 23.8686 16.1203C23.7295 16.1203 23.594 16.1301 23.462 16.1496C23.3298 16.169 23.2249 16.1885 23.1471 16.2079C23.0941 16.222 23.0679 16.2525 23.0679 16.2997V16.638C23.0679 16.6659 23.0747 16.6854 23.0886 16.6965C23.1026 16.7076 23.1206 16.7133 23.1429 16.7133H23.1637L23.2889 16.7028C23.3389 16.6986 23.3952 16.6952 23.4578 16.6923C23.5204 16.6896 23.5857 16.6875 23.6538 16.686C23.7219 16.6847 23.7894 16.684 23.8561 16.684C23.9534 16.684 24.0299 16.7021 24.0855 16.7382C24.1411 16.7745 24.1689 16.8524 24.1689 16.9721V17.1225H23.9437C23.5849 17.1225 23.3243 17.1788 23.1616 17.2916C22.999 17.4043 22.9177 17.5832 22.9177 17.8281V17.8658C22.9177 18.0022 22.9378 18.1163 22.9781 18.2081C23.0183 18.3 23.072 18.3738 23.1387 18.4296C23.2055 18.4851 23.2812 18.5249 23.366 18.5484C23.4508 18.5721 23.5391 18.584 23.6309 18.584C23.756 18.584 23.8637 18.5673 23.9541 18.5339C24.0444 18.5005 24.1298 18.4545 24.2106 18.3961V18.4629C24.2106 18.4851 24.219 18.5046 24.2357 18.5213C24.2523 18.538 24.2718 18.5464 24.2941 18.5464H24.7612C24.7834 18.5464 24.8029 18.538 24.8196 18.5213C24.8362 18.5046 24.8445 18.4851 24.8445 18.4629V16.9721ZM24.0209 18.0473C24.0778 18.0293 24.1314 18.0077 24.1815 17.9826V17.5233H23.9437C23.8714 17.5233 23.8117 17.5296 23.7644 17.5421C23.7171 17.5546 23.6795 17.5734 23.6518 17.5985C23.6239 17.6235 23.6044 17.6556 23.5934 17.6945C23.5822 17.7335 23.5767 17.778 23.5767 17.8281V17.8658C23.5767 17.9548 23.5982 18.0119 23.6413 18.0369C23.6844 18.062 23.7504 18.0745 23.8395 18.0745C23.9034 18.0745 23.9637 18.0655 24.0209 18.0473ZM26.8966 18.4253V18.0537C26.8966 18.0314 26.8889 18.014 26.8737 18.0015C26.8584 17.9889 26.8397 17.9826 26.8174 17.9826H26.8091C26.7312 17.991 26.6568 17.998 26.5859 18.0035C26.5151 18.0091 26.4198 18.0119 26.3003 18.0119C26.2529 18.0119 26.2084 18.0042 26.1668 17.9889C26.1251 17.9736 26.0889 17.9472 26.0583 17.9095C26.0277 17.872 26.0034 17.8219 25.9854 17.7593C25.9672 17.6966 25.9582 17.6193 25.9582 17.5275V17.1767C25.9582 17.0848 25.9672 17.0076 25.9854 16.945C26.0034 16.8823 26.0277 16.8322 26.0583 16.7946C26.0889 16.7571 26.1251 16.7306 26.1668 16.7153C26.2084 16.7 26.2529 16.6923 26.3003 16.6923C26.4198 16.6923 26.5151 16.6952 26.5859 16.7007C26.6568 16.7063 26.7312 16.7133 26.8091 16.7215H26.8174C26.8397 16.7215 26.8584 16.7153 26.8737 16.7028C26.8889 16.6902 26.8966 16.6729 26.8966 16.6506V16.2789C26.8966 16.2483 26.8897 16.2267 26.8758 16.2142C26.8617 16.2017 26.8397 16.1912 26.8091 16.1829C26.7507 16.169 26.6748 16.1551 26.5817 16.1411C26.4886 16.1272 26.3795 16.1203 26.2544 16.1203C25.9595 16.1203 25.724 16.2107 25.5474 16.3917C25.3708 16.5726 25.2825 16.8343 25.2825 17.1767V17.5275C25.2825 17.8699 25.3708 18.1316 25.5474 18.3125C25.724 18.4935 25.9595 18.584 26.2544 18.584C26.3795 18.584 26.4886 18.577 26.5817 18.5632C26.6748 18.5491 26.7507 18.5353 26.8091 18.5213C26.8397 18.513 26.8617 18.5026 26.8758 18.49C26.8897 18.4775 26.8966 18.4559 26.8966 18.4253ZM28.6942 18.145V18.4682C28.6942 18.5151 28.6677 18.5427 28.615 18.5509C28.551 18.562 28.4954 18.5702 28.4482 18.5758C28.4008 18.5813 28.3466 18.5841 28.2855 18.5841C28.1721 18.5841 28.0718 18.575 27.9848 18.5569C27.8977 18.5388 27.8251 18.5034 27.7672 18.4505C27.7091 18.3976 27.6649 18.3245 27.6345 18.2312C27.6042 18.138 27.5889 18.0177 27.5889 17.87V16.6591L27.2553 16.6047C27.233 16.5992 27.2129 16.5888 27.1948 16.5734C27.1767 16.5582 27.1677 16.5393 27.1677 16.5171V16.2414C27.1677 16.2192 27.1767 16.199 27.1948 16.1809C27.2129 16.1628 27.233 16.1537 27.2553 16.1537H27.5889V15.8113C27.5889 15.789 27.5972 15.771 27.6138 15.757C27.6302 15.7432 27.6496 15.7334 27.6718 15.7278L28.1775 15.6402H28.19C28.2121 15.6402 28.2301 15.6464 28.2438 15.6589C28.2577 15.6714 28.2646 15.6889 28.2646 15.7111V16.1537H28.6067C28.6288 16.1537 28.6483 16.1621 28.665 16.179C28.6817 16.1958 28.6901 16.2156 28.6901 16.2379V16.579C28.6901 16.6015 28.6817 16.6211 28.665 16.6379C28.6483 16.6548 28.6288 16.6632 28.6067 16.6632H28.2646V17.8783C28.2646 17.9618 28.2716 18.0155 28.2855 18.0391C28.2994 18.0628 28.3383 18.0746 28.4023 18.0746H28.6067C28.665 18.0746 28.6942 18.0981 28.6942 18.145Z" fill="#005697"/>
</svg>
