<svg width="76" height="108" viewBox="0 0 76 108" fill="none" xmlns="http://www.w3.org/2000/svg">
<path d="M71.0205 2.87107C70.7903 1.79074 71.4795 0.728381 72.5598 0.498216C73.6401 0.268048 74.7025 0.957235 74.9327 2.03756L71.0205 2.87107ZM59.347 61.2653L60.9954 62.3979L59.347 61.2653ZM4.71626 97.5839C3.62387 97.7475 2.60569 96.9946 2.44208 95.9022C2.27848 94.8098 3.0314 93.7917 4.12379 93.6281L4.71626 97.5839ZM5.3137 82.1702C5.65222 81.1188 6.77899 80.5409 7.8304 80.8794C8.88182 81.218 9.45973 82.3447 9.12121 83.3961L5.3137 82.1702ZM2.92408 96.118L1.65091 97.6604C1.01912 97.1389 0.76925 96.2848 1.02032 95.505L2.92408 96.118ZM16.0761 104.381C16.928 105.084 17.0485 106.345 16.3454 107.196C15.6422 108.048 14.3817 108.169 13.5298 107.466L16.0761 104.381ZM74.9327 2.03756C77.1354 12.3762 77.3414 38.6085 60.9954 62.3979L57.6986 60.1327C73.3014 37.4249 73.0434 12.3659 71.0205 2.87107L74.9327 2.03756ZM60.9954 62.3979C44.5988 86.2611 16.3286 95.8448 4.71626 97.5839L4.12379 93.6281C15.0851 91.9864 42.1464 82.7669 57.6986 60.1327L60.9954 62.3979ZM9.12121 83.3961L4.82783 96.7309L1.02032 95.505L5.3137 82.1702L9.12121 83.3961ZM4.19724 94.5756L16.0761 104.381L13.5298 107.466L1.65091 97.6604L4.19724 94.5756Z" fill="#F1F1F1"/>
</svg>
