<svg width="52" height="118" viewBox="0 0 52 118" fill="none" xmlns="http://www.w3.org/2000/svg">
<path d="M1.6988 4.39729C0.699538 3.9266 0.271044 2.73497 0.741734 1.73571C1.21242 0.736446 2.40405 0.307952 3.40332 0.77864L1.6988 4.39729ZM41.1153 49.0347L43.0147 48.4081L41.1153 49.0347ZM36.9581 114.504C36.4271 115.473 35.2115 115.828 34.2429 115.297C33.2744 114.766 32.9196 113.55 33.4506 112.581L36.9581 114.504ZM25.0503 104.699C24.4183 103.793 24.6402 102.546 25.5461 101.914C26.452 101.282 27.6987 101.504 28.3307 102.41L25.0503 104.699ZM34.7064 115.044L35.1636 116.991C34.366 117.178 33.5349 116.86 33.0662 116.188L34.7064 115.044ZM49.2444 109.576C50.3197 109.323 51.3961 109.99 51.6486 111.066C51.9011 112.141 51.234 113.217 50.1587 113.47L49.2444 109.576ZM3.40332 0.77864C12.9662 5.28312 33.972 20.9971 43.0147 48.4081L39.216 49.6612C30.5845 23.4966 10.4812 8.53411 1.6988 4.39729L3.40332 0.77864ZM43.0147 48.4081C52.0853 75.9039 42.6025 104.208 36.9581 114.504L33.4506 112.581C38.7785 102.863 47.8195 75.741 39.216 49.6612L43.0147 48.4081ZM28.3307 102.41L36.3466 113.899L33.0662 116.188L25.0503 104.699L28.3307 102.41ZM34.2493 113.097L49.2444 109.576L50.1587 113.47L35.1636 116.991L34.2493 113.097Z" fill="#E4E3E3"/>
</svg>
