<svg width="51" height="117" viewBox="0 0 51 117" fill="none" xmlns="http://www.w3.org/2000/svg">
<path d="M49.8545 3.80814C50.8531 3.33607 51.28 2.14385 50.8079 1.14524C50.3358 0.14663 49.1436 -0.280215 48.145 0.191855L49.8545 3.80814ZM10.4998 48.5L8.59958 47.8761L10.4998 48.5ZM14.7476 113.964C15.2799 114.932 16.496 115.285 17.4638 114.752C18.4317 114.22 18.7847 113.004 18.2524 112.036L14.7476 113.964ZM26.6418 104.142C27.2726 103.235 27.0489 101.989 26.1421 101.358C25.2354 100.727 23.989 100.951 23.3582 101.858L26.6418 104.142ZM17 114.5L16.5455 116.448C17.3433 116.634 18.174 116.315 18.6418 115.642L17 114.5ZM2.45446 109.052C1.37878 108.801 0.303308 109.47 0.0523176 110.546C-0.198673 111.621 0.469865 112.697 1.54554 112.948L2.45446 109.052ZM48.145 0.191855C38.5883 4.70956 17.6043 20.4526 8.59958 47.8761L12.4 49.1239C20.9952 22.9474 41.0779 7.95711 49.8545 3.80814L48.145 0.191855ZM8.59958 47.8761C-0.433007 75.3844 9.08893 103.675 14.7476 113.964L18.2524 112.036C12.9111 102.325 3.83254 75.2156 12.4 49.1239L8.59958 47.8761ZM23.3582 101.858L15.3582 113.358L18.6418 115.642L26.6418 104.142L23.3582 101.858ZM17.4545 112.552L2.45446 109.052L1.54554 112.948L16.5455 116.448L17.4545 112.552Z" fill="#F1F1F1"/>
</svg>
