<svg width="33" height="123" viewBox="0 0 33 123" fill="none" xmlns="http://www.w3.org/2000/svg">
<path d="M29.3473 4.42732C30.1947 3.71879 30.3072 2.45748 29.5987 1.61009C28.8902 0.762706 27.6289 0.650141 26.7815 1.35867L29.3473 4.42732ZM2.52768 57.5956L0.531577 57.4708L2.52768 57.5956ZM23.1385 119.875C23.8975 120.678 25.1634 120.713 25.9658 119.954C26.7682 119.195 26.8034 117.929 26.0443 117.126L23.1385 119.875ZM32.1731 107.373C32.555 106.336 32.0243 105.186 30.9879 104.805C29.9514 104.423 28.8016 104.953 28.4198 105.99L32.1731 107.373ZM25.4533 119.826L25.5044 121.826C26.3234 121.805 27.0468 121.287 27.33 120.518L25.4533 119.826ZM10.0043 118.221C8.90008 118.249 8.02783 119.167 8.05607 120.271C8.0843 121.375 9.00233 122.248 10.1065 122.219L10.0043 118.221ZM26.7815 1.35867C18.672 8.13927 2.3335 28.6631 0.531577 57.4708L4.52377 57.7205C6.24377 30.2226 21.8997 10.6545 29.3473 4.42732L26.7815 1.35867ZM0.531577 57.4708C-1.27593 86.3676 15.0693 111.345 23.1385 119.875L26.0443 117.126C18.4276 109.075 2.80936 85.1292 4.52377 57.7205L0.531577 57.4708ZM28.4198 105.99L23.5766 119.135L27.33 120.518L32.1731 107.373L28.4198 105.99ZM25.4022 117.827L10.0043 118.221L10.1065 122.219L25.5044 121.826L25.4022 117.827Z" fill="#F1F1F1"/>
</svg>
