<svg width="35" height="24" viewBox="0 0 35 24" fill="none" xmlns="http://www.w3.org/2000/svg">
<rect x="0.5" y="0.5" width="34" height="23" rx="3.5" fill="white" stroke="#D9D9D9"/>
<path d="M26.9236 11.9833C26.9236 17.3211 23.4648 20 17.9828 20H8.46118V4H17.9837C24.4469 4 26.9236 7.5307 26.9236 11.9833Z" fill="white"/>
<path d="M17.9837 19.0777H9.38303V4.92363H17.9837C22.9389 4.92363 26.0004 7.17625 26.0004 11.9833C26.0004 16.6586 23.1764 19.0777 17.9837 19.0777ZM17.9837 4H8.46118V20H17.9837C23.4652 20 26.9241 17.3215 26.9241 11.9833C26.9236 7.5307 24.4473 4 17.9837 4Z" fill="black"/>
<path d="M13.2924 13.0273H10.5393V17.9272H13.2924V13.0273Z" fill="black"/>
<path d="M11.9134 8.84277C12.8585 8.84277 13.6245 9.60882 13.6245 10.5539C13.6245 11.4989 12.8585 12.265 11.9134 12.265C10.9683 12.265 10.2023 11.4989 10.2023 10.5539C10.2023 9.60882 10.9683 8.84277 11.9134 8.84277Z" fill="black"/>
<path d="M20.9568 9.83829H20.9099L20.647 10.7374H21.2197L20.9568 9.83829ZM20.9568 9.83829H20.9099L20.647 10.7374H21.2197L20.9568 9.83829ZM20.9099 9.83829L20.647 10.7374H21.2197L20.9568 9.83829H20.9099ZM21.6322 12.1472L21.4532 11.5302H20.4157L20.2376 12.1472H19.4135L20.372 8.96197H21.5014L22.4599 12.1472H21.6322ZM19.0658 12.1472H17.1038V8.96376H19.0024V9.75793H17.8966V10.1262H18.9425V10.9186H17.8966V11.3552H19.0653L19.0658 12.1472ZM22.8554 12.1472V8.96376H23.6496V11.3548H24.8241C24.5013 7.01604 21.0889 6.07812 17.9859 6.07812H14.6793V8.96554H15.1703C16.0632 8.96554 16.6167 9.57044 16.6167 10.5432C16.6167 11.5476 16.0752 12.1503 15.1703 12.1503H14.6793V17.9265H17.9859C23.0304 17.9265 24.7839 15.5846 24.8473 12.1485L22.8554 12.1472ZM15.1681 9.75793H14.6775V11.3548H15.1681C15.5065 11.3548 15.8203 11.2566 15.8203 10.5432C15.8203 9.84722 15.4717 9.75793 15.1681 9.75793Z" fill="#D50072"/>
</svg>
