<svg width="35" height="24" viewBox="0 0 35 24" fill="none" xmlns="http://www.w3.org/2000/svg">
<rect x="0.5" y="0.5" width="34" height="23" rx="3.5" fill="white" stroke="#D9D9D9"/>
<path fill-rule="evenodd" clip-rule="evenodd" d="M9.90001 15.2412H8.34439C8.23794 15.2412 8.1474 15.3186 8.1308 15.4236L7.50163 19.4127C7.48913 19.4914 7.55009 19.5624 7.62993 19.5624H8.37259C8.47905 19.5624 8.56958 19.485 8.58618 19.3797L8.75588 18.3038C8.77225 18.1985 8.863 18.1212 8.96924 18.1212H9.46169C10.4864 18.1212 11.0778 17.6253 11.2323 16.6427C11.3019 16.2128 11.2353 15.875 11.0339 15.6384C10.8129 15.3787 10.4206 15.2412 9.90001 15.2412ZM10.0795 16.6982C9.99443 17.2564 9.56792 17.2564 9.15553 17.2564H8.92078L9.08547 16.2138C9.09525 16.1509 9.14984 16.1045 9.21353 16.1045H9.32112C9.60204 16.1045 9.86706 16.1045 10.004 16.2646C10.0856 16.3602 10.1106 16.5021 10.0795 16.6982ZM14.5501 16.6803H13.8052C13.7417 16.6803 13.6869 16.7267 13.6771 16.7897L13.6441 16.9981L13.592 16.9226C13.4308 16.6885 13.0712 16.6103 12.7122 16.6103C11.889 16.6103 11.1859 17.2337 11.049 18.1084C10.9778 18.5446 11.079 18.9617 11.3264 19.2527C11.5535 19.5202 11.8783 19.6316 12.2647 19.6316C12.928 19.6316 13.2959 19.2051 13.2959 19.2051L13.2626 19.4122C13.2501 19.4913 13.3111 19.5623 13.3904 19.5623H14.0615C14.1682 19.5623 14.2582 19.4849 14.2751 19.3796L14.6777 16.83C14.6904 16.7515 14.6297 16.6803 14.5501 16.6803ZM13.5117 18.1302C13.4398 18.5557 13.102 18.8414 12.6713 18.8414C12.455 18.8414 12.282 18.7721 12.1711 18.6406C12.061 18.5101 12.0191 18.3242 12.0541 18.1172C12.1213 17.6952 12.4647 17.4003 12.889 17.4003C13.1004 17.4003 13.2724 17.4705 13.3857 17.6031C13.4992 17.7371 13.5442 17.9241 13.5117 18.1302ZM17.769 16.6802H18.5176C18.6224 16.6802 18.6836 16.7977 18.624 16.8837L16.1342 20.4776C16.0939 20.5359 16.0275 20.5705 15.9565 20.5705H15.2089C15.1036 20.5705 15.0421 20.452 15.1031 20.3657L15.8783 19.2714L15.0538 16.8516C15.0253 16.7675 15.0874 16.6802 15.1769 16.6802H15.9124C16.008 16.6802 16.0923 16.7429 16.1199 16.8344L16.5575 18.2958L17.59 16.775C17.6304 16.7156 17.6976 16.6802 17.769 16.6802Z" fill="#253B80"/>
<path fill-rule="evenodd" clip-rule="evenodd" d="M25.8854 19.4129L26.5238 15.3509C26.5336 15.2878 26.5882 15.2414 26.6517 15.2412H27.3704C27.4498 15.2412 27.5108 15.3124 27.4982 15.3911L26.8687 19.38C26.8522 19.4852 26.7617 19.5626 26.6551 19.5626H26.0132C25.9338 19.5626 25.8729 19.4916 25.8854 19.4129ZM20.996 15.2414H19.4401C19.3339 15.2414 19.2434 15.3188 19.2267 15.4238L18.5976 19.4129C18.5851 19.4916 18.646 19.5626 18.7255 19.5626H19.5238C19.598 19.5626 19.6615 19.5085 19.6731 19.4348L19.8516 18.3041C19.868 18.1987 19.9587 18.1214 20.065 18.1214H20.5572C21.5821 18.1214 22.1734 17.6255 22.328 16.6429C22.3978 16.213 22.3308 15.8752 22.1295 15.6386C21.9085 15.3789 21.5166 15.2414 20.996 15.2414ZM21.1755 16.6984C21.0906 17.2566 20.6641 17.2566 20.2515 17.2566H20.017L20.1819 16.2141C20.1917 16.1511 20.2458 16.1047 20.3097 16.1047H20.4173C20.698 16.1047 20.9633 16.1047 21.1001 16.2648C21.1818 16.3604 21.2066 16.5023 21.1755 16.6984ZM25.6457 16.6805H24.9013C24.8373 16.6805 24.783 16.7269 24.7734 16.79L24.7404 16.9983L24.6881 16.9228C24.5269 16.6887 24.1675 16.6105 23.8085 16.6105C22.9853 16.6105 22.2824 17.234 22.1455 18.1086C22.0745 18.5448 22.1753 18.962 22.4228 19.2529C22.6502 19.5204 22.9746 19.6319 23.3611 19.6319C24.0243 19.6319 24.3921 19.2053 24.3921 19.2053L24.359 19.4124C24.3464 19.4915 24.4074 19.5625 24.4873 19.5625H25.158C25.2642 19.5625 25.3548 19.4851 25.3714 19.3799L25.7742 16.8302C25.7865 16.7517 25.7256 16.6805 25.6457 16.6805ZM24.6074 18.1304C24.5359 18.556 24.1977 18.8416 23.7669 18.8416C23.551 18.8416 23.3777 18.7723 23.2666 18.6408C23.1565 18.5103 23.1152 18.3244 23.1498 18.1174C23.2173 17.6954 23.5603 17.4005 23.9845 17.4005C24.1961 17.4005 24.368 17.4707 24.4814 17.6033C24.5953 17.7373 24.6403 17.9243 24.6074 18.1304Z" fill="#179BD7"/>
<path d="M15.6571 13.8138L15.8484 12.5991L15.4224 12.5892H13.3882L14.8019 3.62534C14.8062 3.59828 14.8205 3.57305 14.8413 3.55513C14.8622 3.53722 14.8889 3.52734 14.9167 3.52734H18.3467C19.4855 3.52734 20.2713 3.7643 20.6816 4.232C20.8739 4.45141 20.9964 4.68068 21.0557 4.933C21.1178 5.19776 21.1189 5.51406 21.0582 5.89985L21.0538 5.92801V6.1752L21.2462 6.28418C21.4082 6.37011 21.5368 6.46848 21.6356 6.58111C21.8002 6.7687 21.9066 7.00712 21.9516 7.28978C21.998 7.5805 21.9826 7.92643 21.9066 8.31807C21.8188 8.76859 21.6769 9.16096 21.4854 9.48202C21.309 9.77785 21.0845 10.0232 20.818 10.2134C20.5635 10.394 20.261 10.5312 19.9191 10.619C19.5878 10.7052 19.2101 10.7488 18.7958 10.7488H18.5288C18.338 10.7488 18.1525 10.8175 18.007 10.9408C17.8611 11.0665 17.7645 11.2383 17.7349 11.4263L17.7148 11.5357L17.3769 13.6767L17.3616 13.7553C17.3576 13.7802 17.3506 13.7927 17.3404 13.8011C17.3312 13.8087 17.3181 13.8138 17.3052 13.8138H15.6571Z" fill="#253B80"/>
<path d="M21.4281 5.95703C21.4179 6.02248 21.4062 6.0894 21.3931 6.15815C20.9407 8.48056 19.3932 9.28286 17.4166 9.28286H16.4103C16.1686 9.28286 15.965 9.45838 15.9273 9.6968L15.412 12.9645L15.2661 13.8907C15.2416 14.0473 15.3623 14.1884 15.5202 14.1884H17.3052C17.5165 14.1884 17.696 14.0348 17.7293 13.8264L17.7469 13.7357L18.083 11.603L18.1045 11.4861C18.1374 11.2769 18.3173 11.1234 18.5286 11.1234H18.7956C20.5249 11.1234 21.8787 10.4213 22.2743 8.38951C22.4396 7.54077 22.354 6.8321 21.9167 6.33367C21.7843 6.18338 21.6201 6.05868 21.4281 5.95703Z" fill="#179BD7"/>
<path d="M20.9549 5.7688C20.8859 5.74869 20.8145 5.7304 20.7414 5.71395C20.6679 5.69787 20.5925 5.6836 20.515 5.67117C20.2437 5.62729 19.9464 5.60645 19.6279 5.60645H16.9395C16.8732 5.60645 16.8104 5.62143 16.7541 5.6485C16.6301 5.7081 16.538 5.82549 16.5157 5.96919L15.9437 9.59159L15.9272 9.69727C15.9649 9.45884 16.1686 9.28332 16.4103 9.28332H17.4166C19.3931 9.28332 20.9407 8.48066 21.393 6.15862C21.4065 6.08987 21.4179 6.02295 21.4281 5.9575C21.3137 5.89679 21.1897 5.84487 21.0562 5.80061C21.0234 5.78965 20.9894 5.77905 20.9549 5.7688Z" fill="#222D65"/>
<path d="M16.5156 5.96866C16.5379 5.82495 16.6301 5.70757 16.754 5.64833C16.8107 5.62126 16.8733 5.60627 16.9394 5.60627H19.6279C19.9464 5.60627 20.2437 5.62712 20.5149 5.671C20.5925 5.68343 20.6679 5.69769 20.7414 5.71378C20.8145 5.73024 20.8858 5.74853 20.9549 5.76863C20.9893 5.77887 21.0233 5.78947 21.0565 5.80008C21.19 5.84433 21.314 5.89662 21.4284 5.95696C21.5631 5.09871 21.4274 4.51437 20.9634 3.98523C20.4518 3.40271 19.5284 3.15332 18.3469 3.15332H14.9168C14.6755 3.15332 14.4697 3.32884 14.4323 3.56763L13.0037 12.6236C12.9755 12.8028 13.1137 12.9645 13.2943 12.9645H15.412L15.9437 9.59105L16.5156 5.96866Z" fill="#253B80"/>
</svg>
