<svg width="37" height="121" viewBox="0 0 37 121" fill="none" xmlns="http://www.w3.org/2000/svg">
<path d="M1.38098 3.82843C0.462272 3.21521 0.214624 1.97333 0.827849 1.05462C1.44107 0.135905 2.68295 -0.111743 3.60166 0.50148L1.38098 3.82843ZM33.7665 53.8018L35.7376 53.4628L33.7665 53.8018ZM19.9777 117.938C19.3094 118.817 18.0546 118.988 17.1752 118.32C16.2957 117.652 16.1246 116.397 16.7929 115.518L19.9777 117.938ZM9.65 106.48C9.1588 105.491 9.56264 104.291 10.552 103.799C11.5413 103.308 12.7415 103.712 13.2327 104.701L9.65 106.48ZM17.671 118.138L17.8353 120.132C17.0189 120.199 16.2439 119.761 15.8796 119.028L17.671 118.138ZM32.8575 114.879C33.9583 114.789 34.9243 115.608 35.0151 116.708C35.1058 117.809 34.287 118.775 33.1862 118.866L32.8575 114.879ZM3.60166 0.50148C12.3937 6.37001 30.846 25.0164 35.7376 53.4628L31.7955 54.1407C27.1263 26.9876 9.45542 9.21796 1.38098 3.82843L3.60166 0.50148ZM35.7376 53.4628C40.6443 81.9974 27.082 108.589 19.9777 117.938L16.7929 115.518C23.4989 106.693 36.4495 81.2057 31.7955 54.1407L35.7376 53.4628ZM13.2327 104.701L19.4624 117.249L15.8796 119.028L9.65 106.48L13.2327 104.701ZM17.5067 116.145L32.8575 114.879L33.1862 118.866L17.8353 120.132L17.5067 116.145Z" fill="#FFEAA2"/>
</svg>
