<svg width="56" height="120" viewBox="0 0 56 120" fill="none" xmlns="http://www.w3.org/2000/svg">
<path d="M10.7388 3.29552C11.2279 2.30514 10.8215 1.10578 9.83116 0.616674C8.84079 0.127565 7.64143 0.533923 7.15232 1.5243L10.7388 3.29552ZM7.67321 62.7662L5.79668 63.458L7.67321 62.7662ZM51.6782 111.419C52.6966 111.847 53.8689 111.368 54.2965 110.349C54.724 109.331 54.245 108.159 53.2266 107.731L51.6782 111.419ZM54.8948 96.3331C54.8256 95.2307 53.8758 94.3931 52.7734 94.4623C51.671 94.5315 50.8334 95.4812 50.9026 96.5836L54.8948 96.3331ZM53.7762 110.44L54.6303 112.248C55.3711 111.898 55.8236 111.132 55.7722 110.314L53.7762 110.44ZM38.9944 115.209C37.9956 115.681 37.5684 116.873 38.0401 117.872C38.5118 118.871 39.7039 119.298 40.7027 118.826L38.9944 115.209ZM7.15232 1.5243C2.47156 11.0022 -4.18779 36.3759 5.79668 63.458L9.54974 62.0744C0.0192402 36.2236 6.44008 11.9998 10.7388 3.29552L7.15232 1.5243ZM5.79668 63.458C15.8121 90.624 40.8517 106.874 51.6782 111.419L53.2266 107.731C43.0071 103.441 19.0493 87.8413 9.54974 62.0744L5.79668 63.458ZM50.9026 96.5836L51.7801 110.565L55.7722 110.314L54.8948 96.3331L50.9026 96.5836ZM52.922 108.631L38.9944 115.209L40.7027 118.826L54.6303 112.248L52.922 108.631Z" fill="#E4E3E3"/>
</svg>
